<svg width="124" height="124" viewBox="0 0 124 124" fill="none" xmlns="http://www.w3.org/2000/svg">
<g clip-path="url(#clip0_327_891)">
<path d="M118 0H6C2.68629 0 0 2.68629 0 6V118C0 121.314 2.68629 124 6 124H118C121.314 124 124 121.314 124 118V6C124 2.68629 121.314 0 118 0Z" fill="#040405"/>
<path d="M102 62C102.001 67.2524 100.968 72.4536 98.9583 77.3065C96.9487 82.1595 94.0026 86.5691 90.2881 90.2836C86.5736 93.9981 82.1636 96.9447 77.3098 98.955C72.4561 100.965 67.2538 102 62 102C56.7462 102 51.5439 100.965 46.6902 98.955C41.8364 96.9447 37.4264 93.9981 33.7119 90.2836C29.9974 86.5691 27.0513 82.1595 25.0417 77.3065C23.0322 72.4536 21.9986 67.2524 22 62C21.9986 56.7476 23.0322 51.5464 25.0417 46.6935C27.0513 41.8405 29.9974 37.4309 33.7119 33.7164C37.4264 30.0019 41.8364 27.0554 46.6902 25.045C51.5439 23.0347 56.7462 22 62 22C67.2538 22 72.4561 23.0347 77.3098 25.045C82.1636 27.0554 86.5736 30.0019 90.2881 33.7164C94.0026 37.4309 96.9487 41.8405 98.9583 46.6935C100.968 51.5464 102.001 56.7476 102 62V62Z" stroke="#FDEEA2" stroke-width="4"/>
<path d="M56.1314 46.358C56.1202 47.9184 55.9951 49.4629 55.7632 50.9032C55.5314 52.3434 55.1973 53.6513 54.7802 54.752C54.3631 55.8527 53.8711 56.7247 53.3322 57.3181C52.7934 57.9115 52.2183 58.2147 51.6399 58.2105C51.0614 58.2062 50.4909 57.8945 49.961 57.2932C49.431 56.6919 48.952 55.8128 48.5514 54.7061C48.1507 53.5993 47.8361 52.2867 47.6257 50.8432C47.4153 49.3996 47.3132 47.8535 47.3252 46.2931C47.3364 44.7327 47.4615 43.1882 47.6934 41.7479C47.9252 40.3076 48.2593 38.9998 48.6764 37.8991C49.0935 36.7984 49.5855 35.9264 50.1244 35.333C50.6632 34.7396 51.2383 34.4363 51.8167 34.4406C52.3952 34.4449 52.9657 34.7566 53.4956 35.3579C54.0256 35.9592 54.5046 36.8383 54.9053 37.945C55.306 39.0517 55.6205 40.3644 55.8309 41.8079C56.0413 43.2514 56.1434 44.7976 56.1314 46.358V46.358Z" fill="#FDEEA2"/>
<path d="M78.0074 46.2181C77.9962 47.7785 77.871 49.323 77.6392 50.7633C77.4073 52.2035 77.0733 53.5114 76.6562 54.6121C76.2391 55.7128 75.7471 56.5848 75.2082 57.1782C74.6694 57.7716 74.0943 58.0749 73.5159 58.0706C72.9374 58.0663 72.3669 57.7546 71.837 57.1533C71.307 56.552 70.828 55.6729 70.4273 54.5662C70.0266 53.4594 69.7121 52.1468 69.5017 50.7033C69.2913 49.2597 69.1892 47.7136 69.2011 46.1532C69.2124 44.5928 69.3375 43.0483 69.5694 41.608C69.8012 40.1677 70.1352 38.8599 70.5524 37.7592C70.9695 36.6585 71.4615 35.7865 72.0003 35.1931C72.5392 34.5997 73.1142 34.2964 73.6927 34.3007C74.2712 34.305 74.8416 34.6167 75.3716 35.218C75.9015 35.8193 76.3805 36.6984 76.7812 37.8051C77.1819 38.9119 77.4965 40.2245 77.7069 41.668C77.9173 43.1116 78.0194 44.6577 78.0074 46.2181V46.2181Z" fill="#FDEEA2"/>
<path d="M90.4751 62.7389C90.4751 69.869 87.5741 76.7136 82.3973 81.7975C77.2205 86.8814 70.1825 89.7975 62.8002 89.9172C55.4179 90.037 48.2824 87.3509 42.9316 82.4379C37.5809 77.5248 34.4434 70.7782 34.1953 63.6522" stroke="#FDEEA2" stroke-width="4"/>
<path d="M32.7863 65.0244C32.7098 65.0244 32.4762 65.1536 32.2673 65.3116C31.6446 65.7824 30.6753 65.6889 30.3038 65.1222C30.0134 64.6791 30.0117 64.5897 30.2854 64.172C30.998 63.0848 33.79 62.3503 36.0135 62.665C37.7345 62.9087 38.2934 63.5694 37.5909 64.5299C37.3867 64.809 37.1008 64.8848 36.3524 64.8583L35.3793 64.8239L32.7863 65.0244Z" fill="#FDEEA2"/>
<path d="M91.3219 64.7031C91.3984 64.7031 91.6319 64.8323 91.8409 64.9903C92.4636 65.4612 93.4329 65.3676 93.8044 64.8009C94.0948 64.3578 94.0965 64.2684 93.8228 63.8508C93.1102 62.7635 90.3182 62.029 88.0947 62.3438C86.3737 62.5874 85.8148 63.2481 86.5173 64.2086C86.7215 64.4877 87.0074 64.5635 87.7558 64.537L88.7289 64.5026L91.3219 64.7031Z" fill="#FDEEA2"/>
</g>
<defs>
<clipPath id="clip0_327_891">
<rect width="124" height="124" fill="white"/>
</clipPath>
</defs>
</svg>
