<svg width="50" height="50" viewBox="0 0 50 50" fill="none" xmlns="http://www.w3.org/2000/svg">
<path d="M49 25C49.0008 28.1514 48.3807 31.2721 47.175 34.1839C45.9692 37.0957 44.2015 39.7415 41.9729 41.9702C39.7442 44.1989 37.0981 45.9668 34.1859 47.173C31.2737 48.3792 28.1523 49 25 49C21.8477 49 18.7263 48.3792 15.8141 47.173C12.9019 45.9668 10.2558 44.1989 8.02714 41.9702C5.79845 39.7415 4.03076 37.0957 2.82503 34.1839C1.61929 31.2721 0.999147 28.1514 1 25C0.999147 21.8486 1.61929 18.7279 2.82503 15.8161C4.03076 12.9043 5.79845 10.2585 8.02714 8.02983C10.2558 5.80114 12.9019 4.03321 15.8141 2.82702C18.7263 1.62083 21.8477 1 25 1C28.1523 1 31.2737 1.62083 34.1859 2.82702C37.0981 4.03321 39.7442 5.80114 41.9729 8.02983C44.2015 10.2585 45.9692 12.9043 47.175 15.8161C48.3807 18.7279 49.0008 21.8486 49 25V25Z" stroke="#FDEEA2" stroke-width="2"/>
<path d="M21.4787 15.6148C21.4719 16.5511 21.3968 17.4778 21.2577 18.3419C21.1186 19.2061 20.9182 19.9908 20.6679 20.6512C20.4177 21.3116 20.1225 21.8348 19.7992 22.1909C19.4759 22.5469 19.1308 22.7289 18.7837 22.7263C18.4367 22.7238 18.0944 22.5367 17.7764 22.176C17.4584 21.8152 17.171 21.2877 16.9306 20.6237C16.6902 19.9596 16.5015 19.172 16.3752 18.3059C16.249 17.4398 16.1877 16.5121 16.1949 15.5759C16.2017 14.6396 16.2767 13.7129 16.4158 12.8488C16.555 11.9846 16.7554 11.1999 17.0056 10.5395C17.2559 9.87906 17.5511 9.35588 17.8744 8.99982C18.1977 8.64377 18.5428 8.46182 18.8898 8.46438C19.2369 8.46694 19.5792 8.65395 19.8972 9.01474C20.2151 9.37552 20.5025 9.903 20.743 10.567C20.9834 11.2311 21.1721 12.0187 21.2983 12.8848C21.4246 13.7509 21.4858 14.6786 21.4787 15.6148V15.6148Z" fill="#FDEEA2"/>
<path d="M34.6042 15.5308C34.5974 16.4671 34.5223 17.3938 34.3832 18.2579C34.2441 19.1221 34.0437 19.9068 33.7934 20.5672C33.5432 21.2277 33.2479 21.7508 32.9246 22.1069C32.6013 22.4629 32.2563 22.6449 31.9092 22.6423C31.5622 22.6398 31.2199 22.4528 30.9019 22.092C30.5839 21.7312 30.2965 21.2037 30.0561 20.5397C29.8157 19.8756 29.627 19.0881 29.5007 18.2219C29.3745 17.3558 29.3132 16.4281 29.3204 15.4919C29.3271 14.5556 29.4022 13.629 29.5413 12.7648C29.6804 11.9006 29.8809 11.1159 30.1311 10.4555C30.3814 9.79507 30.6766 9.27189 30.9999 8.91584C31.3232 8.55978 31.6683 8.37784 32.0153 8.3804C32.3624 8.38296 32.7047 8.56997 33.0227 8.93075C33.3406 9.29153 33.628 9.81901 33.8684 10.483C34.1089 11.1471 34.2976 11.9347 34.4238 12.8008C34.5501 13.6669 34.6113 14.5946 34.6042 15.5308V15.5308Z" fill="#FDEEA2"/>
<path d="M42.0853 25.4434C42.0853 29.7214 40.3446 33.8282 37.2386 36.8785C34.1325 39.9288 29.9097 41.6785 25.4803 41.7504C21.0509 41.8222 16.7696 40.2106 13.5592 37.2627C10.3487 34.3149 8.46622 30.2669 8.31738 25.9913" stroke="#FDEEA2" stroke-width="2"/>
<path d="M7.47205 26.8146C7.42616 26.8146 7.28604 26.8921 7.16067 26.9869C6.78704 27.2694 6.20546 27.2133 5.98258 26.8733C5.80835 26.6075 5.80731 26.5538 5.97154 26.3032C6.39912 25.6509 8.0743 25.2101 9.40839 25.399C10.441 25.5452 10.7763 25.9416 10.3548 26.5179C10.2323 26.6854 10.0608 26.7309 9.61171 26.715L9.02786 26.6943L7.47205 26.8146Z" fill="#FDEEA2"/>
<path d="M42.5929 26.6218C42.6388 26.6218 42.7789 26.6994 42.9042 26.7942C43.2779 27.0767 43.8595 27.0206 44.0823 26.6805C44.2566 26.4147 44.2576 26.361 44.0934 26.1105C43.6658 25.4581 41.9906 25.0174 40.6565 25.2063C39.6239 25.3524 39.2886 25.7489 39.7101 26.3252C39.8326 26.4926 40.0042 26.5381 40.4532 26.5222L41.0371 26.5016L42.5929 26.6218Z" fill="#FDEEA2"/>
</svg>
