<svg width="33" height="33" viewBox="0 0 33 33" fill="none" xmlns="http://www.w3.org/2000/svg">
<path d="M16.5556 3.78198C14.0339 3.78198 11.5688 4.52976 9.4721 5.93074C7.37538 7.33173 5.74118 9.32301 4.77616 11.6528C3.81114 13.9825 3.55865 16.5461 4.05061 19.0194C4.54257 21.4926 5.75689 23.7645 7.54001 25.5476C9.32313 27.3307 11.595 28.545 14.0682 29.037C16.5415 29.529 19.1051 29.2765 21.4348 28.3114C23.7646 27.3464 25.7559 25.7122 27.1569 23.6155C28.5579 21.5188 29.3056 19.0537 29.3056 16.532C29.3017 13.1517 27.9571 9.91098 25.5669 7.52076C23.1766 5.13053 19.9359 3.78595 16.5556 3.78198ZM27.7819 15.8195C27.3744 15.7957 26.9644 15.782 26.5569 15.782C24.6443 15.7828 22.7409 16.0474 20.9006 16.5682C20.4464 15.1618 19.8416 13.8086 19.0969 12.532C19.0794 12.5007 19.0594 12.4707 19.0419 12.4395C20.9554 11.316 22.6768 9.89339 24.1406 8.22573C26.294 10.1884 27.5998 12.9116 27.7819 15.8195ZM22.9669 7.29323C21.6047 8.83337 20.0055 10.1461 18.2294 11.182C16.7924 9.1106 14.9921 7.31664 12.9156 5.88698C14.5838 5.31616 16.363 5.14601 18.1091 5.39031C19.8553 5.63461 21.5194 6.2865 22.9669 7.29323ZM11.2694 6.60448C13.4797 7.97071 15.3927 9.7676 16.8944 11.8882C14.2923 13.1378 11.4422 13.7851 8.55562 13.782C7.60008 13.7813 6.64587 13.7106 5.70062 13.5707C6.10748 12.0924 6.81103 10.7124 7.76841 9.51477C8.72579 8.31713 9.91697 7.32693 11.2694 6.60448ZM5.30562 16.532C5.30557 16.0337 5.33856 15.5359 5.40437 15.042C6.44723 15.2014 7.50066 15.2816 8.55562 15.282C11.7319 15.2855 14.8665 14.5584 17.7169 13.157C17.7444 13.2032 17.7744 13.2482 17.8006 13.2945C18.491 14.4765 19.0517 15.7296 19.4731 17.032C18.3439 17.4404 17.2527 17.9469 16.2119 18.5457C13.4181 20.1575 11.0358 22.3948 9.25187 25.082C8.01438 24.0275 7.02063 22.7168 6.33928 21.2406C5.65794 19.7644 5.30526 18.1578 5.30562 16.532ZM10.4544 25.9795C12.1153 23.454 14.3433 21.3515 16.9606 19.8395C17.8945 19.3025 18.8722 18.8455 19.8831 18.4732C20.2401 19.9534 20.4205 21.4706 20.4206 22.9932C20.4206 24.4286 20.2609 25.8595 19.9444 27.2595C18.3659 27.7585 16.6967 27.9025 15.0562 27.6812C13.4156 27.4599 11.8442 26.8788 10.4544 25.9795ZM21.6094 26.5807C21.8164 25.3961 21.9206 24.1958 21.9206 22.9932C21.9198 21.3136 21.7158 19.6402 21.3131 18.0095C23.019 17.5277 24.783 17.2829 26.5556 17.282C26.9619 17.282 27.3706 17.2957 27.7769 17.322C27.6377 19.267 26.9962 21.1425 25.9152 22.7654C24.8341 24.3883 23.3505 25.7029 21.6094 26.5807Z" fill="#BBA7FD"/>
</svg>
