<svg width="40" height="40" viewBox="0 0 40 40" fill="none" xmlns="http://www.w3.org/2000/svg">
<path d="M6.25 26.0974L9.58746 23.994C10.2314 25.1828 10.8171 26.1888 12.2221 26.1888C13.5689 26.1888 14.4181 25.6402 14.4181 23.5063V8.99412H18.5166V23.5666C18.5166 27.9872 16.0283 29.9995 12.3978 29.9995C9.11912 29.9995 7.21614 28.2315 6.25 26.0974ZM20.7428 25.64L24.0799 23.628C24.9585 25.122 26.1003 26.2195 28.1201 26.2195C29.8185 26.2195 30.9013 25.3352 30.9013 24.1157C30.9013 22.6524 29.7888 22.134 27.9152 21.2806L26.8908 20.8229C23.9337 19.5123 21.9723 17.8659 21.9723 14.3904C21.9723 11.1891 24.3143 8.75 27.9739 8.75C30.5795 8.75 32.4532 9.69526 33.7997 12.1647L30.6085 14.299C29.9057 12.9881 29.1449 12.4698 27.9738 12.4698C26.7734 12.4698 26.0122 13.2625 26.0122 14.299C26.0122 15.5794 26.7734 16.098 28.5298 16.8907L29.5544 17.3479C33.0384 18.9029 34.9998 20.4881 34.9998 24.0548C34.9998 27.8966 32.1015 30 28.2078 30C24.4021 30 21.943 28.1096 20.7428 25.64Z" fill="#BBA7FD"/>
</svg>
