<svg width="40" height="40" viewBox="0 0 40 40" fill="none" xmlns="http://www.w3.org/2000/svg">
<path d="M29.7839 10.3039C30.8479 10.5514 31.8149 11.1086 32.5626 11.9051C32.9745 12.3362 33.3322 12.816 33.6276 13.3339C33.6414 13.3901 31.7101 14.6876 30.5389 15.4114C30.4964 15.4401 30.3276 15.2564 30.1364 14.9739C29.9224 14.6061 29.6187 14.2985 29.2536 14.0799C28.8886 13.8613 28.4741 13.7388 28.0489 13.7239C26.7026 13.6314 25.8351 14.3364 25.8414 15.5151C25.8297 15.8047 25.8958 16.0921 26.0326 16.3476C26.3289 16.9601 26.8789 17.3276 28.6064 18.0764C31.7864 19.4451 33.1514 20.3476 33.9939 21.6301C34.4701 22.4404 34.7634 23.3451 34.8532 24.2807C34.943 25.2163 34.8272 26.1602 34.5139 27.0464C34.0832 28.0181 33.4003 28.857 32.536 29.4757C31.6717 30.0945 30.6576 30.4706 29.5989 30.5651C28.4735 30.6942 27.3364 30.6824 26.2139 30.5301C24.4945 30.2476 22.9106 29.4224 21.6939 28.1751C21.2341 27.6574 20.8449 27.0812 20.5364 26.4614C20.6661 26.3648 20.8027 26.2779 20.9451 26.2014C21.1426 26.0889 21.8901 25.6589 22.5951 25.2501L23.8751 24.5001L24.1426 24.8901C24.5932 25.5344 25.1667 26.0833 25.8301 26.5051C26.5001 26.8726 27.2591 27.0468 28.0224 27.0082C28.7856 26.9695 29.5231 26.7196 30.1526 26.2864C30.4773 25.9699 30.6803 25.5492 30.726 25.098C30.7717 24.6469 30.6573 24.1941 30.4026 23.8189C30.0576 23.3251 29.3526 22.9101 27.3489 22.0414C25.7777 21.5116 24.3466 20.6334 23.1626 19.4726C22.5988 18.8301 22.1824 18.0719 21.9426 17.2514C21.7653 16.3166 21.7392 15.3594 21.8651 14.4164C22.1003 13.3312 22.6635 12.3445 23.4783 11.5901C24.293 10.8357 25.32 10.35 26.4201 10.1989C27.5403 10.065 28.6742 10.1004 29.7839 10.3039ZM19.3551 12.1576L19.3689 13.9751H13.5814V30.4101H9.50007V13.9789H3.71257V12.1939C3.69718 11.5826 3.71387 10.9709 3.76257 10.3614C3.78382 10.3326 7.30257 10.3189 11.5689 10.3264L19.3326 10.3476L19.3551 12.1576Z" fill="#BBA7FD"/>
</svg>
